<svg width="109" height="99" viewBox="0 0 109 99" fill="none" xmlns="http://www.w3.org/2000/svg">
<g filter="url(#filter0_d_3_465)">
<path fill-rule="evenodd" clip-rule="evenodd" d="M41.421 15.483L15.8678 41.0362C10.4005 46.5035 10.4005 55.3678 15.8678 60.8352L20.3416 65.3089C26.2667 71.2341 36.1154 70.6906 41.6377 64.2458C45.4585 59.7869 49.7137 55.0265 53.4829 51.2982C56.7032 48.113 60.7228 44.5395 64.5803 41.2442C71.0436 35.723 71.6001 25.8632 65.668 19.9311L61.2199 15.483C55.7526 10.0157 46.8883 10.0157 41.421 15.483ZM14.4536 39.622C8.20521 45.8704 8.20522 56.001 14.4536 62.2494L18.9274 66.7231C25.7142 73.51 36.9113 72.8356 43.1564 65.5472C46.9648 61.1026 51.1784 56.3908 54.8894 52.7201C58.0589 49.5851 62.0362 46.0479 65.8793 42.7649C73.1869 36.5225 73.8781 25.3128 67.0822 18.5169L62.6342 14.0688C56.3858 7.82044 46.2551 7.82044 40.0067 14.0688L14.4536 39.622Z" fill="#2E3A59"/>
<path fill-rule="evenodd" clip-rule="evenodd" d="M59.5755 13.6082L59.1752 13.2079C54.166 8.1987 46.2498 7.74009 40.8767 12.238C36.2013 16.1518 30.9529 20.7165 27.0053 24.6212C22.5249 29.0529 17.2699 35.0579 12.8923 40.2647C8.37609 45.6363 8.8266 53.5635 13.8433 58.5802L14.2491 58.9861C20.1743 64.9112 30.023 64.3678 35.5453 57.923C39.366 53.464 43.6212 48.7036 47.3905 44.9754C50.6107 41.7901 54.6303 38.2166 58.4878 34.9214C64.9511 29.4002 65.5077 19.5404 59.5755 13.6082ZM11.3615 38.9777C6.15284 45.1728 6.7059 54.2713 12.4291 59.9944L12.8349 60.4003C19.6218 67.1872 30.8188 66.5127 37.064 59.2243C40.8724 54.7798 45.0859 50.068 48.7969 46.3973C51.9665 43.2622 55.9438 39.725 59.7869 36.4421C67.0945 30.1996 67.7857 18.99 60.9898 12.194L60.5895 11.7937C54.8749 6.07918 45.7898 5.5169 39.5929 10.7044C34.9064 14.6276 29.6068 19.2349 25.5989 23.1992C21.0509 27.6978 15.7482 33.76 11.3615 38.9777Z" fill="#2E3A59"/>
<path fill-rule="evenodd" clip-rule="evenodd" d="M40.3979 31.5989C43.0662 34.2672 47.3924 34.2672 50.0607 31.5989C52.729 28.9306 52.729 24.6044 50.0607 21.9361C47.3924 19.2678 43.0662 19.2678 40.3979 21.9361C37.7296 24.6044 37.7296 28.9306 40.3979 31.5989ZM38.9837 20.5219C35.5343 23.9713 35.5343 29.5638 38.9837 33.0131C42.433 36.4625 48.0256 36.4625 51.4749 33.0131C54.9243 29.5638 54.9243 23.9713 51.4749 20.5219C48.0256 17.0725 42.433 17.0725 38.9837 20.5219Z" fill="#2E3A59"/>
<path fill-rule="evenodd" clip-rule="evenodd" d="M94.5 64.9999H70.5V84.9999H94.5V64.9999ZM70.5 62.9999C69.3954 62.9999 68.5 63.8953 68.5 64.9999V84.9999C68.5 86.1044 69.3954 86.9999 70.5 86.9999H94.5C95.6046 86.9999 96.5 86.1044 96.5 84.9999V64.9999C96.5 63.8953 95.6046 62.9999 94.5 62.9999H70.5Z" fill="#2E3A59"/>
<path fill-rule="evenodd" clip-rule="evenodd" d="M78.8401 46.2442C77.1653 44.1228 74.6703 42.9452 71.2252 41.9609L71.7747 40.0378C75.3296 41.0536 78.3346 42.3762 80.4099 45.0049C82.4856 47.6341 83.5001 51.3991 83.5002 56.999L81.5002 56.999C81.5001 51.5997 80.5144 48.365 78.8401 46.2442Z" fill="#2E3A59"/>
</g>
<defs>
<filter id="filter0_d_3_465" x="3.77332" y="3.13739" width="104.727" height="95.8625" filterUnits="userSpaceOnUse" color-interpolation-filters="sRGB">
<feFlood flood-opacity="0" result="BackgroundImageFix"/>
<feColorMatrix in="SourceAlpha" type="matrix" values="0 0 0 0 0 0 0 0 0 0 0 0 0 0 0 0 0 0 127 0" result="hardAlpha"/>
<feOffset dx="4" dy="4"/>
<feGaussianBlur stdDeviation="4"/>
<feColorMatrix type="matrix" values="0 0 0 0 0.65098 0 0 0 0 0.670588 0 0 0 0 0.741176 0 0 0 1 0"/>
<feBlend mode="normal" in2="BackgroundImageFix" result="effect1_dropShadow_3_465"/>
<feBlend mode="normal" in="SourceGraphic" in2="effect1_dropShadow_3_465" result="shape"/>
</filter>
</defs>
</svg>
