<svg width="73" height="88" viewBox="0 0 73 88" fill="none" xmlns="http://www.w3.org/2000/svg">
<g filter="url(#filter0_d_3_444)">
<path fill-rule="evenodd" clip-rule="evenodd" d="M56.5 6H8.5C7.39543 6 6.5 6.89543 6.5 8V72C6.5 73.1046 7.39543 74 8.5 74H56.5C57.6046 74 58.5 73.1046 58.5 72V8C58.5 6.89543 57.6046 6 56.5 6ZM8.5 4C6.29086 4 4.5 5.79086 4.5 8V72C4.5 74.2091 6.29086 76 8.5 76H56.5C58.7091 76 60.5 74.2091 60.5 72V8C60.5 5.79086 58.7091 4 56.5 4H8.5Z" fill="#2E3A59"/>
<path fill-rule="evenodd" clip-rule="evenodd" d="M50.5 6H14.5V10C14.5 11.1046 15.3954 12 16.5 12H48.5C49.6046 12 50.5 11.1046 50.5 10V6ZM12.5 4V10C12.5 12.2091 14.2909 14 16.5 14H48.5C50.7091 14 52.5 12.2091 52.5 10V4H12.5Z" fill="#2E3A59"/>
<g filter="url(#filter1_d_3_444)">
<path fill-rule="evenodd" clip-rule="evenodd" d="M48.5 59H16.5C15.3954 59 14.5 59.8954 14.5 61V63C14.5 64.1046 15.3954 65 16.5 65H48.5C49.6046 65 50.5 64.1046 50.5 63V61C50.5 59.8954 49.6046 59 48.5 59ZM16.5 57C14.2909 57 12.5 58.7909 12.5 61V63C12.5 65.2091 14.2909 67 16.5 67H48.5C50.7091 67 52.5 65.2091 52.5 63V61C52.5 58.7909 50.7091 57 48.5 57H16.5Z" fill="#00C368"/>
</g>
</g>
<defs>
<filter id="filter0_d_3_444" x="0.5" y="0" width="72" height="88" filterUnits="userSpaceOnUse" color-interpolation-filters="sRGB">
<feFlood flood-opacity="0" result="BackgroundImageFix"/>
<feColorMatrix in="SourceAlpha" type="matrix" values="0 0 0 0 0 0 0 0 0 0 0 0 0 0 0 0 0 0 127 0" result="hardAlpha"/>
<feOffset dx="4" dy="4"/>
<feGaussianBlur stdDeviation="4"/>
<feColorMatrix type="matrix" values="0 0 0 0 0.65098 0 0 0 0 0.670588 0 0 0 0 0.741176 0 0 0 1 0"/>
<feBlend mode="normal" in2="BackgroundImageFix" result="effect1_dropShadow_3_444"/>
<feBlend mode="normal" in="SourceGraphic" in2="effect1_dropShadow_3_444" result="shape"/>
</filter>
<filter id="filter1_d_3_444" x="10.5" y="55" width="48" height="18" filterUnits="userSpaceOnUse" color-interpolation-filters="sRGB">
<feFlood flood-opacity="0" result="BackgroundImageFix"/>
<feColorMatrix in="SourceAlpha" type="matrix" values="0 0 0 0 0 0 0 0 0 0 0 0 0 0 0 0 0 0 127 0" result="hardAlpha"/>
<feOffset dx="2" dy="2"/>
<feGaussianBlur stdDeviation="2"/>
<feColorMatrix type="matrix" values="0 0 0 0 0 0 0 0 0 0.764706 0 0 0 0 0.407843 0 0 0 0.4 0"/>
<feBlend mode="normal" in2="BackgroundImageFix" result="effect1_dropShadow_3_444"/>
<feBlend mode="normal" in="SourceGraphic" in2="effect1_dropShadow_3_444" result="shape"/>
</filter>
</defs>
</svg>
