<svg width="68" height="75" viewBox="0 0 68 75" fill="none" xmlns="http://www.w3.org/2000/svg">
<g filter="url(#filter0_d_3_458)">
<path fill-rule="evenodd" clip-rule="evenodd" d="M20.243 60.2061C23.4438 59.3485 25.3433 56.0585 24.4856 52.8577C23.628 49.6569 20.3379 47.7574 17.1371 48.615C13.9363 49.4727 12.0368 52.7627 12.8945 55.9635C13.7521 59.1643 17.0422 61.0638 20.243 60.2061ZM20.7606 62.138C25.0283 60.9944 27.561 56.6078 26.4175 52.34C25.2739 48.0723 20.8872 45.5396 16.6195 46.6832C12.3518 47.8267 9.81911 52.2134 10.9626 56.4811C12.1062 60.7489 16.4929 63.2815 20.7606 62.138Z" fill="#2E3A59"/>
<path fill-rule="evenodd" clip-rule="evenodd" d="M46.2673 6.64552L19.2213 13.8925L26.4683 40.9384L53.5142 33.6914L46.2673 6.64552ZM16.7719 12.4782L25.0541 43.3879L55.9637 35.1057L47.6815 4.19603L16.7719 12.4782Z" fill="#2E3A59"/>
<g filter="url(#filter1_d_3_458)">
<path fill-rule="evenodd" clip-rule="evenodd" d="M35.1938 11.6832L31.3301 12.7185L32.883 18.514L36.7467 17.4788L35.1938 11.6832ZM28.8806 11.3043L31.4688 20.9635L39.1962 18.893L36.608 9.23371L28.8806 11.3043Z" fill="#00C368"/>
</g>
</g>
<defs>
<filter id="filter0_d_3_458" x="6.68811" y="0.196045" width="61.2756" height="74.2165" filterUnits="userSpaceOnUse" color-interpolation-filters="sRGB">
<feFlood flood-opacity="0" result="BackgroundImageFix"/>
<feColorMatrix in="SourceAlpha" type="matrix" values="0 0 0 0 0 0 0 0 0 0 0 0 0 0 0 0 0 0 127 0" result="hardAlpha"/>
<feOffset dx="4" dy="4"/>
<feGaussianBlur stdDeviation="4"/>
<feColorMatrix type="matrix" values="0 0 0 0 0.65098 0 0 0 0 0.670588 0 0 0 0 0.741176 0 0 0 1 0"/>
<feBlend mode="normal" in2="BackgroundImageFix" result="effect1_dropShadow_3_458"/>
<feBlend mode="normal" in="SourceGraphic" in2="effect1_dropShadow_3_458" result="shape"/>
</filter>
<filter id="filter1_d_3_458" x="26.8806" y="7.2337" width="18.3156" height="19.7298" filterUnits="userSpaceOnUse" color-interpolation-filters="sRGB">
<feFlood flood-opacity="0" result="BackgroundImageFix"/>
<feColorMatrix in="SourceAlpha" type="matrix" values="0 0 0 0 0 0 0 0 0 0 0 0 0 0 0 0 0 0 127 0" result="hardAlpha"/>
<feOffset dx="2" dy="2"/>
<feGaussianBlur stdDeviation="2"/>
<feColorMatrix type="matrix" values="0 0 0 0 0 0 0 0 0 0.764706 0 0 0 0 0.407843 0 0 0 0.4 0"/>
<feBlend mode="normal" in2="BackgroundImageFix" result="effect1_dropShadow_3_458"/>
<feBlend mode="normal" in="SourceGraphic" in2="effect1_dropShadow_3_458" result="shape"/>
</filter>
</defs>
</svg>
